<mxfile host="app.diagrams.net" modified="2022-07-19T11:41:47.750Z" agent="5.0 (Windows NT 10.0; Win64; x64) AppleWebKit/537.36 (KHTML, like Gecko) Chrome/103.0.0.0 Safari/537.36" etag="p0ZeC1gn1f7vhpnfBttZ" version="17.4.6" type="github">
  <diagram id="C5RBs43oDa-KdzZeNtuy" name="Page-1">
    <mxGraphModel dx="1277" dy="587" grid="1" gridSize="10" guides="1" tooltips="1" connect="1" arrows="1" fold="1" page="1" pageScale="1" pageWidth="827" pageHeight="1169" math="0" shadow="0">
      <root>
        <mxCell id="WIyWlLk6GJQsqaUBKTNV-0" />
        <mxCell id="WIyWlLk6GJQsqaUBKTNV-1" parent="WIyWlLk6GJQsqaUBKTNV-0" />
        <mxCell id="AOcW2DNxlk6ggbpVJtUa-3" value="" style="edgeStyle=orthogonalEdgeStyle;rounded=0;orthogonalLoop=1;jettySize=auto;html=1;" edge="1" parent="WIyWlLk6GJQsqaUBKTNV-1" source="AOcW2DNxlk6ggbpVJtUa-0" target="AOcW2DNxlk6ggbpVJtUa-1">
          <mxGeometry relative="1" as="geometry" />
        </mxCell>
        <mxCell id="AOcW2DNxlk6ggbpVJtUa-0" value="パソコン起動" style="rounded=1;whiteSpace=wrap;html=1;" vertex="1" parent="WIyWlLk6GJQsqaUBKTNV-1">
          <mxGeometry x="120" width="120" height="40" as="geometry" />
        </mxCell>
        <mxCell id="AOcW2DNxlk6ggbpVJtUa-5" value="" style="edgeStyle=orthogonalEdgeStyle;rounded=0;orthogonalLoop=1;jettySize=auto;html=1;" edge="1" parent="WIyWlLk6GJQsqaUBKTNV-1" source="AOcW2DNxlk6ggbpVJtUa-1" target="AOcW2DNxlk6ggbpVJtUa-4">
          <mxGeometry relative="1" as="geometry" />
        </mxCell>
        <mxCell id="AOcW2DNxlk6ggbpVJtUa-1" value="MS２起動・ログイン" style="rounded=1;whiteSpace=wrap;html=1;" vertex="1" parent="WIyWlLk6GJQsqaUBKTNV-1">
          <mxGeometry x="120" y="80" width="120" height="40" as="geometry" />
        </mxCell>
        <mxCell id="AOcW2DNxlk6ggbpVJtUa-7" value="" style="edgeStyle=orthogonalEdgeStyle;rounded=0;orthogonalLoop=1;jettySize=auto;html=1;" edge="1" parent="WIyWlLk6GJQsqaUBKTNV-1" source="AOcW2DNxlk6ggbpVJtUa-4" target="AOcW2DNxlk6ggbpVJtUa-6">
          <mxGeometry relative="1" as="geometry" />
        </mxCell>
        <mxCell id="AOcW2DNxlk6ggbpVJtUa-4" value="エクセル起動" style="rounded=1;whiteSpace=wrap;html=1;" vertex="1" parent="WIyWlLk6GJQsqaUBKTNV-1">
          <mxGeometry x="120" y="160" width="120" height="40" as="geometry" />
        </mxCell>
        <mxCell id="AOcW2DNxlk6ggbpVJtUa-9" value="" style="edgeStyle=orthogonalEdgeStyle;rounded=0;orthogonalLoop=1;jettySize=auto;html=1;" edge="1" parent="WIyWlLk6GJQsqaUBKTNV-1" source="AOcW2DNxlk6ggbpVJtUa-6" target="AOcW2DNxlk6ggbpVJtUa-8">
          <mxGeometry relative="1" as="geometry" />
        </mxCell>
        <mxCell id="AOcW2DNxlk6ggbpVJtUa-6" value="業種コードに&lt;br&gt;50を入力" style="whiteSpace=wrap;html=1;rounded=1;" vertex="1" parent="WIyWlLk6GJQsqaUBKTNV-1">
          <mxGeometry x="120" y="240" width="120" height="40" as="geometry" />
        </mxCell>
        <mxCell id="AOcW2DNxlk6ggbpVJtUa-11" value="" style="edgeStyle=orthogonalEdgeStyle;rounded=0;orthogonalLoop=1;jettySize=auto;html=1;" edge="1" parent="WIyWlLk6GJQsqaUBKTNV-1" source="AOcW2DNxlk6ggbpVJtUa-8">
          <mxGeometry relative="1" as="geometry">
            <mxPoint x="180" y="400" as="targetPoint" />
          </mxGeometry>
        </mxCell>
        <mxCell id="AOcW2DNxlk6ggbpVJtUa-8" value="ページ番号に&lt;br&gt;１を入力" style="rounded=1;whiteSpace=wrap;html=1;" vertex="1" parent="WIyWlLk6GJQsqaUBKTNV-1">
          <mxGeometry x="120" y="320" width="120" height="40" as="geometry" />
        </mxCell>
        <mxCell id="AOcW2DNxlk6ggbpVJtUa-18" value="" style="edgeStyle=orthogonalEdgeStyle;rounded=0;orthogonalLoop=1;jettySize=auto;html=1;" edge="1" parent="WIyWlLk6GJQsqaUBKTNV-1" target="AOcW2DNxlk6ggbpVJtUa-17">
          <mxGeometry relative="1" as="geometry">
            <mxPoint x="180" y="520" as="sourcePoint" />
          </mxGeometry>
        </mxCell>
        <mxCell id="AOcW2DNxlk6ggbpVJtUa-16" value="" style="edgeStyle=orthogonalEdgeStyle;rounded=0;orthogonalLoop=1;jettySize=auto;html=1;" edge="1" parent="WIyWlLk6GJQsqaUBKTNV-1" source="AOcW2DNxlk6ggbpVJtUa-15">
          <mxGeometry relative="1" as="geometry">
            <mxPoint x="180" y="480" as="targetPoint" />
          </mxGeometry>
        </mxCell>
        <mxCell id="AOcW2DNxlk6ggbpVJtUa-15" value="MS２更新" style="rounded=1;whiteSpace=wrap;html=1;" vertex="1" parent="WIyWlLk6GJQsqaUBKTNV-1">
          <mxGeometry x="120" y="400" width="120" height="40" as="geometry" />
        </mxCell>
        <mxCell id="AOcW2DNxlk6ggbpVJtUa-21" value="" style="edgeStyle=orthogonalEdgeStyle;rounded=0;orthogonalLoop=1;jettySize=auto;html=1;startArrow=none;" edge="1" parent="WIyWlLk6GJQsqaUBKTNV-1" target="AOcW2DNxlk6ggbpVJtUa-20">
          <mxGeometry relative="1" as="geometry">
            <mxPoint x="180" y="620" as="sourcePoint" />
          </mxGeometry>
        </mxCell>
        <mxCell id="AOcW2DNxlk6ggbpVJtUa-27" value="" style="edgeStyle=orthogonalEdgeStyle;rounded=0;orthogonalLoop=1;jettySize=auto;html=1;" edge="1" parent="WIyWlLk6GJQsqaUBKTNV-1" source="AOcW2DNxlk6ggbpVJtUa-17" target="AOcW2DNxlk6ggbpVJtUa-20">
          <mxGeometry relative="1" as="geometry" />
        </mxCell>
        <mxCell id="AOcW2DNxlk6ggbpVJtUa-17" value="for i=1 to 50" style="rounded=1;whiteSpace=wrap;html=1;" vertex="1" parent="WIyWlLk6GJQsqaUBKTNV-1">
          <mxGeometry x="120" y="560" width="120" height="50" as="geometry" />
        </mxCell>
        <mxCell id="AOcW2DNxlk6ggbpVJtUa-19" value="sleep" style="shape=parallelogram;perimeter=parallelogramPerimeter;whiteSpace=wrap;html=1;fixedSize=1;" vertex="1" parent="WIyWlLk6GJQsqaUBKTNV-1">
          <mxGeometry x="120" y="480" width="120" height="40" as="geometry" />
        </mxCell>
        <mxCell id="AOcW2DNxlk6ggbpVJtUa-23" value="" style="edgeStyle=orthogonalEdgeStyle;rounded=0;orthogonalLoop=1;jettySize=auto;html=1;" edge="1" parent="WIyWlLk6GJQsqaUBKTNV-1" source="AOcW2DNxlk6ggbpVJtUa-20" target="AOcW2DNxlk6ggbpVJtUa-22">
          <mxGeometry relative="1" as="geometry" />
        </mxCell>
        <mxCell id="AOcW2DNxlk6ggbpVJtUa-30" value="" style="edgeStyle=orthogonalEdgeStyle;rounded=0;orthogonalLoop=1;jettySize=auto;html=1;" edge="1" parent="WIyWlLk6GJQsqaUBKTNV-1" source="AOcW2DNxlk6ggbpVJtUa-20" target="AOcW2DNxlk6ggbpVJtUa-29">
          <mxGeometry relative="1" as="geometry" />
        </mxCell>
        <mxCell id="AOcW2DNxlk6ggbpVJtUa-20" value="i番目に値がある" style="rhombus;whiteSpace=wrap;html=1;" vertex="1" parent="WIyWlLk6GJQsqaUBKTNV-1">
          <mxGeometry x="120" y="640" width="120" height="40" as="geometry" />
        </mxCell>
        <mxCell id="AOcW2DNxlk6ggbpVJtUa-22" value="i番目のコードを&lt;br&gt;お気に入り登録" style="rounded=1;whiteSpace=wrap;html=1;" vertex="1" parent="WIyWlLk6GJQsqaUBKTNV-1">
          <mxGeometry x="280" y="640" width="120" height="40" as="geometry" />
        </mxCell>
        <mxCell id="AOcW2DNxlk6ggbpVJtUa-29" value="業種コードに" style="rounded=1;whiteSpace=wrap;html=1;" vertex="1" parent="WIyWlLk6GJQsqaUBKTNV-1">
          <mxGeometry x="120" y="720" width="120" height="60" as="geometry" />
        </mxCell>
      </root>
    </mxGraphModel>
  </diagram>
</mxfile>
